<svg width="256" height="256" viewBox="0 0 256 256" xmlns="http://www.w3.org/2000/svg" role="img" aria-label="MAGESTIC">
<defs><linearGradient id="bg" x1="0" y1="0" x2="1" y2="1"><stop offset="0" stop-color="#34e89e"/><stop offset="0.5" stop-color="#15a986"/><stop offset="1" stop-color="#0f3443"/></linearGradient></defs>
<rect x="8" y="8" width="240" height="240" rx="54" ry="54" fill="url(#bg)"/>

<g>
  <rect x="26"  y="156" width="76" height="11" rx="5.5" fill="#eafff7" opacity="0.95"/>
  <rect x="154" y="156" width="76" height="11" rx="5.5" fill="#eafff7" opacity="0.95"/>
  <rect x="26"  y="174" width="76" height="11" rx="5.5" fill="#eafff7" opacity="0.6"/>
  <rect x="154" y="174" width="76" height="11" rx="5.5" fill="#eafff7" opacity="0.6"/>
</g>
<g>
  <rect x="86"  y="86" width="26" height="20" rx="6" fill="#5ef0c0"/>
  <rect x="115" y="80" width="26" height="26" rx="6" fill="#ff8a3d"/>
  <rect x="144" y="86" width="26" height="20" rx="6" fill="#5ef0c0"/>
</g>
<path d="M99 110 Q104 134 118 152" stroke="#fff0a8" stroke-width="6" fill="none" stroke-linecap="round" opacity="0.95"/>
<path d="M157 110 Q152 134 138 152" stroke="#fff0a8" stroke-width="6" fill="none" stroke-linecap="round" opacity="0.95"/>
<g>
  <rect x="104" y="196" width="9"  height="38" rx="3" fill="#5ef0c0"/>
  <rect x="117" y="196" width="6"  height="38" rx="3" fill="#eafff7"/>
  <rect x="127" y="196" width="11" height="38" rx="3" fill="#ff8a3d"/>
  <rect x="142" y="196" width="7"  height="38" rx="3" fill="#eafff7"/>
</g>
</svg>