<?xml version="1.0" encoding="utf-8"?>
<svg xmlns="http://www.w3.org/2000/svg" width="1040" height="384" viewBox="0 0 1040 384">
<defs><marker id="arr" markerWidth="7" markerHeight="7" refX="6" refY="3.5" orient="auto" markerUnits="userSpaceOnUse"><path d="M0,0 L0,7 L7,3.5 z" fill="#94a3b8"/></marker><marker id="arrb" markerWidth="7" markerHeight="7" refX="6" refY="3.5" orient="auto" markerUnits="userSpaceOnUse"><path d="M0,0 L0,7 L7,3.5 z" fill="#ff6aa0"/></marker></defs>
<rect width="1040" height="384" fill="#0f172a"/>
<g font-family="Inter, Helvetica Neue, Helvetica, Arial, sans-serif">
<text x="30.0" y="30.0" font-size="17" fill="#f1f5f9" font-weight="700" text-anchor="start">The MAGESTIC workflow</text>
<text x="30.0" y="49.0" font-size="11.5" fill="#94a3b8" font-weight="400" text-anchor="start">precise editing by retron ssDNA donor recruitment, then trackable barcodes — from variant design to scored hits</text>
<rect x="20.0" y="78.0" width="329.6" height="152.0" rx="12" ry="12" fill="#1e293b" opacity="0.55"/>
<text x="184.8" y="96.0" font-size="10.5" fill="#8b8ef6" font-weight="700" text-anchor="middle" letter-spacing="0.5">DESIGN &amp; BUILD</text>
<rect x="355.2" y="78.0" width="329.6" height="152.0" rx="12" ry="12" fill="#43122a" opacity="0.5"/>
<text x="520.0" y="96.0" font-size="10.5" fill="#ff6aa0" font-weight="700" text-anchor="middle" letter-spacing="0.5">EDIT &amp; BARCODE</text>
<rect x="690.4" y="78.0" width="329.6" height="152.0" rx="12" ry="12" fill="#1e293b" opacity="0.55"/>
<text x="855.2" y="96.0" font-size="10.5" fill="#34d6bd" font-weight="700" text-anchor="middle" letter-spacing="0.5">PHENOTYPE &amp; ANALYZE</text>
<rect x="30.0" y="148.0" width="142.0" height="56.0" rx="8" ry="8" fill="#1e1f4a" stroke="#8b8ef6" stroke-width="1.6"/>
<text x="101.0" y="174.0" font-size="12.5" fill="#8b8ef6" font-weight="600" text-anchor="middle">Guide + donor</text>
<text x="101.0" y="189.0" font-size="9.5" fill="#94a3b8" font-weight="400" text-anchor="middle">20 + 129 bp in 200-mer</text>
<rect x="197.6" y="148.0" width="142.0" height="56.0" rx="8" ry="8" fill="#11244a" stroke="#60a5fa" stroke-width="1.6"/>
<text x="268.6" y="174.0" font-size="12.5" fill="#60a5fa" font-weight="600" text-anchor="middle">Plasmid library</text>
<text x="268.6" y="189.0" font-size="9.5" fill="#94a3b8" font-weight="400" text-anchor="middle">+ BC0 (10 bp)</text>
<rect x="532.8" y="148.0" width="142.0" height="56.0" rx="8" ry="8" fill="#06323f" stroke="#34c6e6" stroke-width="1.6"/>
<text x="603.8" y="174.0" font-size="12.5" fill="#34c6e6" font-weight="600" text-anchor="middle">Genomic barcode</text>
<text x="603.8" y="189.0" font-size="9.5" fill="#94a3b8" font-weight="400" text-anchor="middle">BC1 (20 bp)</text>
<rect x="700.4" y="148.0" width="142.0" height="56.0" rx="8" ry="8" fill="#053a32" stroke="#34d6bd" stroke-width="1.6"/>
<text x="771.4" y="174.0" font-size="12.5" fill="#34d6bd" font-weight="600" text-anchor="middle">Phenotype</text>
<text x="771.4" y="189.0" font-size="9.5" fill="#94a3b8" font-weight="400" text-anchor="middle">pooled NGS / REDI</text>
<rect x="868.0" y="148.0" width="142.0" height="56.0" rx="8" ry="8" fill="#3a2706" stroke="#fbbf24" stroke-width="1.6"/>
<text x="939.0" y="174.0" font-size="12.5" fill="#fbbf24" font-weight="600" text-anchor="middle">DESeq2 + hits</text>
<text x="939.0" y="189.0" font-size="9.5" fill="#94a3b8" font-weight="400" text-anchor="middle">tiered calling</text>
<rect x="365.2" y="140.0" width="142.0" height="72.0" rx="10" ry="10" fill="#43122a" stroke="#ff6aa0" stroke-width="3"/>
<line x1="406.2" y1="128.0" x2="430.2" y2="128.0" stroke="#9aa8c0" stroke-width="3" stroke-linecap="round"/>
<line x1="442.2" y1="128.0" x2="466.2" y2="128.0" stroke="#9aa8c0" stroke-width="3" stroke-linecap="round"/>
<path d="M418 125 Q436 106 454 125" stroke="#34d6bd" stroke-width="2.4" fill="none" stroke-linecap="round"/>
<circle cx="436.2" cy="112.0" r="3.2" fill="#ff6aa0"/>
<text x="436.2" y="164.0" font-size="12.5" fill="#ff6aa0" font-weight="700" text-anchor="middle">Edit target site</text>
<text x="436.2" y="180.0" font-size="9.5" fill="#94a3b8" font-weight="400" text-anchor="middle">Cas9 cut + retron</text>
<text x="436.2" y="192.0" font-size="9.5" fill="#94a3b8" font-weight="400" text-anchor="middle">ssDNA donor recruited</text>
<text x="436.2" y="225.0" font-size="8.5" fill="#64748b" font-weight="400" text-anchor="middle" font-style="italic">in vivo (LexA-FHA)</text>
<line x1="175.0" y1="176.0" x2="194.6" y2="176.0" stroke="#94a3b8" stroke-width="2" stroke-linecap="round" marker-end="url(#arr)"/>
<line x1="342.6" y1="176.0" x2="362.2" y2="176.0" stroke="#94a3b8" stroke-width="2" stroke-linecap="round" marker-end="url(#arr)"/>
<line x1="510.2" y1="176.0" x2="529.8" y2="176.0" stroke="#94a3b8" stroke-width="2" stroke-linecap="round" marker-end="url(#arr)"/>
<line x1="677.8" y1="176.0" x2="697.4" y2="176.0" stroke="#94a3b8" stroke-width="2" stroke-linecap="round" marker-end="url(#arr)"/>
<line x1="845.4" y1="176.0" x2="865.0" y2="176.0" stroke="#94a3b8" stroke-width="2" stroke-linecap="round" marker-end="url(#arr)"/>
<rect x="589.8" y="108.0" width="3.0" height="13.0" rx="1" ry="1" fill="#34d6bd"/>
<rect x="594.8" y="108.0" width="2.0" height="13.0" rx="1" ry="1" fill="#9aa8c0"/>
<rect x="598.8" y="108.0" width="4.0" height="13.0" rx="1" ry="1" fill="#ff6aa0"/>
<rect x="604.8" y="108.0" width="2.0" height="13.0" rx="1" ry="1" fill="#9aa8c0"/>
<rect x="608.8" y="108.0" width="3.0" height="13.0" rx="1" ry="1" fill="#60a5fa"/>
<rect x="613.8" y="108.0" width="5.0" height="13.0" rx="1" ry="1" fill="#ff6aa0"/>
<rect x="620.8" y="108.0" width="2.0" height="13.0" rx="1" ry="1" fill="#34d6bd"/>
<text x="101.0" y="224.0" font-size="10.5" fill="#64748b" font-weight="400" text-anchor="middle" font-family="SF Mono, Menlo, Consolas, monospace">magestic-design-vcf</text>
<text x="268.6" y="224.0" font-size="10.5" fill="#64748b" font-weight="400" text-anchor="middle" font-family="SF Mono, Menlo, Consolas, monospace">magestic-gdb-pipeline</text>
<text x="603.8" y="224.0" font-size="10.5" fill="#64748b" font-weight="400" text-anchor="middle" font-family="SF Mono, Menlo, Consolas, monospace">magestic-bc1-link</text>
<text x="855.2" y="224.0" font-size="10.5" fill="#64748b" font-weight="400" text-anchor="middle" font-family="SF Mono, Menlo, Consolas, monospace">magestic-screen-analysis</text>
<line x1="771.4" y1="236.0" x2="771.4" y2="306.0" stroke="#64748b" stroke-width="1.8" stroke-linecap="round" marker-end="url(#arr)" stroke-dasharray="3 4"/>
<rect x="673.4" y="306.0" width="196.0" height="32.0" rx="9" ry="9" fill="#3a2706" stroke="#fbbf24" stroke-width="1.6"/>
<text x="771.4" y="325.7" font-size="11" fill="#fbbf24" font-weight="600" text-anchor="middle">REDI: arrayed, indexed</text>
<text x="771.4" y="350.0" font-size="10.5" fill="#64748b" font-weight="400" text-anchor="middle" font-family="SF Mono, Menlo, Consolas, monospace">magestic-redi</text>
<text x="771.4" y="364.0" font-size="8.5" fill="#64748b" font-weight="400" text-anchor="middle" font-style="italic">Cre lox66 × lox71 to known positions</text>
<text x="1032.0" y="377.0" font-size="6" fill="#64748b" font-weight="400" text-anchor="end">pipeline_overview.py · MAGESTIC v3.0.0 · schematic · rendered 2026-06-08</text>
</g>
</svg>
